<svg viewBox="0 0 24 24" fill="none" xmlns="http://www.w3.org/2000/svg">
<path d="M5.16667 19C4.52234 19 4 18.4777 4 17.8333C4 17.189 4.52233 16.6667 5.16667 16.6667H18.8333C19.4777 16.6667 20 17.189 20 17.8333C20 18.4777 19.4777 19 18.8333 19H5.16667ZM5.16667 13.1667C4.52233 13.1667 4 12.6443 4 12C4 11.3557 4.52233 10.8333 5.16667 10.8333H18.8333C19.4777 10.8333 20 11.3557 20 12C20 12.6443 19.4777 13.1667 18.8333 13.1667H5.16667ZM5.16667 7.33333C4.52233 7.33333 4 6.811 4 6.16667C4 5.52233 4.52233 5 5.16667 5H18.8333C19.4777 5 20 5.52233 20 6.16667C20 6.811 19.4777 7.33333 18.8333 7.33333H5.16667Z" fill="currentColor"/>
</svg>
